# xmcd
#
# Track frame offsets:
#	150
#	12095
#	29242
#	45312
#	58465
#	77300
#	93162
#	112760
#	129240
#	148205
#
# Disc length: 2363 seconds
#
# Revision: 4
# Processed by: cddbd v1.5.2PL0 Copyright (c) Steve Scherf et al.
# Submitted via: EasyCDDAExtractor 11.1.0.1
#
DISCID=7909390a
DTITLE=Little Willie Anderson - Swinging The Blues
DYEAR=1994
DGENRE=Blues
TTITLE0=Come Here Mama
TTITLE1=Willie's Women Blues
TTITLE2=Lester Leaps In
TTITLE3=Everything Gonna Be Alright
TTITLE4=Late Night
TTITLE5=69th Street Bounce
TTITLE6=Looking For You Baby
TTITLE7=Been Around
TTITLE8=West Side Baby
TTITLE9=Big Fat Mama
EXTD=YEAR: 1994
EXTT0=
EXTT1=
EXTT2=
EXTT3=
EXTT4=
EXTT5=
EXTT6=
EXTT7=
EXTT8=
EXTT9=
PLAYORDER=
